<svg width="162" height="71" viewBox="0 0 162 71" fill="none" xmlns="http://www.w3.org/2000/svg">
<g clip-path="url(#clip0)">
<path d="M70.6907 38.5051C71.5351 37.5994 72.1857 36.5313 72.6028 35.3659C73.0198 34.2006 73.1946 32.9625 73.1164 31.7274C73.1976 30.4846 73.0243 29.2383 72.6073 28.0646C72.1902 26.8909 71.5381 25.8143 70.6907 24.9006C69.7838 24.0625 68.7167 23.4158 67.5536 22.9995C66.3904 22.5831 65.1551 22.4057 63.9216 22.4777H57.2016C56.9431 22.4954 56.6837 22.4611 56.4388 22.3767C56.1938 22.2923 55.9683 22.1597 55.7757 21.9866C55.5975 21.8002 55.4602 21.5787 55.3727 21.3362C55.2852 21.0938 55.2494 20.8357 55.2676 20.5786C55.2445 20.3226 55.2732 20.0646 55.3521 19.8199C55.4309 19.5752 55.5583 19.3488 55.7265 19.1543C55.9148 18.973 56.1388 18.8327 56.3843 18.7425C56.6298 18.6523 56.8914 18.6142 57.1525 18.6305H71.2316V11.3453H54.53C53.2898 11.2662 52.0463 11.4387 50.8746 11.8523C49.7028 12.2659 48.6269 12.912 47.7118 13.7518C46.8731 14.6668 46.2287 15.7419 45.8174 16.9124C45.4061 18.0829 45.2365 19.3245 45.3188 20.5623C45.2397 21.7973 45.4109 23.0355 45.8221 24.2029C46.2332 25.3703 46.8759 26.4428 47.7118 27.3563C48.6269 28.1961 49.7028 28.8423 50.8746 29.2559C52.0463 29.6695 53.2898 29.8419 54.53 29.7629H61.2008C61.4616 29.7495 61.7224 29.7891 61.9675 29.8791C62.2125 29.9692 62.4368 30.1078 62.6268 30.2868C62.8105 30.4767 62.9521 30.7032 63.0425 30.9514C63.1328 31.1996 63.1699 31.464 63.1512 31.7274C63.1704 31.986 63.1335 32.2456 63.043 32.4886C62.9525 32.7316 62.8105 32.9522 62.6268 33.1354C62.436 33.3122 62.2112 33.4484 61.9661 33.5356C61.7209 33.6229 61.4605 33.6593 61.2008 33.6429H45.0402V40.9281H63.9216C65.1551 41.0001 66.3904 40.8226 67.5536 40.4063C68.7167 39.9899 69.7838 39.3433 70.6907 38.5051Z" fill="#EB6C34"/>
<path d="M99.9798 33.6429H93.4238C92.6798 33.7219 91.934 33.5107 91.3422 33.0535C90.887 32.4674 90.6757 31.7286 90.7522 30.9907V18.6305H99.8159V11.3453H90.7194V3.45435H80.8853V11.3453H76.755V18.6305H80.8853V31.4982C80.8563 32.9705 81.0216 34.4402 81.377 35.8694C81.6634 36.9702 82.2277 37.9791 83.016 38.7998C83.8303 39.5971 84.8432 40.1624 85.9499 40.4369C87.3783 40.8063 88.8509 40.977 90.326 40.9444H99.9798V33.6429Z" fill="#EB6C34"/>
<path d="M161.262 18.1393C160.864 16.6884 160.094 15.3664 159.027 14.3041C157.961 13.2417 156.635 12.4758 155.182 12.0819C153.372 11.5578 151.493 11.3095 149.609 11.3452H133.579V18.6304H149.15C149.996 18.5451 150.843 18.7917 151.51 19.318C152.033 19.9807 152.28 20.8193 152.199 21.6591V22.0029H140.955C139.675 21.917 138.391 22.0903 137.18 22.5123C135.969 22.9342 134.856 23.5963 133.907 24.4586C133.049 25.4055 132.39 26.5154 131.971 27.722C131.551 28.9287 131.379 30.2074 131.465 31.4818C131.382 32.7535 131.556 34.0289 131.975 35.2325C132.395 36.436 133.052 37.5433 133.907 38.4887C134.859 39.345 135.973 40.002 137.184 40.421C138.394 40.8399 139.677 41.0123 140.955 40.928H162V23.7055C162.038 21.8235 161.789 19.9466 161.262 18.1393ZM152.281 33.7574H143.774C143.172 33.7821 142.584 33.5706 142.135 33.1681C141.928 32.9506 141.767 32.6933 141.663 32.4118C141.559 32.1304 141.513 31.8307 141.529 31.531C141.506 31.2182 141.548 30.904 141.652 30.6082C141.756 30.3124 141.921 30.0413 142.135 29.812C142.584 29.4095 143.172 29.198 143.774 29.2226H152.281V33.7574Z" fill="#EB6C34"/>
<path d="M128.089 18.6304V11.3452H114.206C112.985 11.3431 111.774 11.5816 110.645 12.0471C109.516 12.5126 108.489 13.196 107.625 14.0582C106.76 14.9204 106.074 15.9444 105.606 17.0717C105.138 18.1989 104.897 19.4073 104.897 20.6277V40.928H114.731V22.0193C114.731 19.5963 115.583 18.6304 117.189 18.6304H128.089Z" fill="#EB6C34"/>
<path d="M21.0941 10.2321L31.1412 40.9281H42.1882L28.8958 5.41897C28.3028 3.83008 27.2377 2.46022 25.8433 1.49301C24.4489 0.525793 22.7918 0.00744629 21.0941 0.00744629C19.3964 0.00744629 17.7393 0.525793 16.3449 1.49301C14.9505 2.46022 13.8854 3.83008 13.2924 5.41897L0 40.9281H11.0469L21.0941 10.2321Z" fill="#EB6C34"/>
<path d="M8.99822 59.6404H6.048C5.67551 59.6971 5.29491 59.6664 4.93637 59.5507C4.57784 59.435 4.25122 59.2374 3.98241 58.9737C3.7136 58.7099 3.51 58.3873 3.38774 58.0313C3.26548 57.6753 3.22793 57.2957 3.27806 56.9227C3.2251 56.5485 3.26054 56.167 3.38154 55.8089C3.50254 55.4508 3.70574 55.1259 3.97491 54.8602C4.24408 54.5945 4.57175 54.3954 4.93171 54.2788C5.29168 54.1622 5.67396 54.1314 6.048 54.1887H13.8661V51.4875H5.5399C4.03242 51.3771 2.54223 51.8654 1.3932 52.8463C0.894331 53.3946 0.513315 54.0392 0.273694 54.7403C0.0340725 55.4415 -0.0590638 56.1842 3.94527e-05 56.9227C-0.0581842 57.665 0.0368871 58.4113 0.279357 59.1153C0.521827 59.8194 0.906524 60.4661 1.40959 61.0155C2.56877 61.9884 4.06278 62.4702 5.57268 62.358H8.5229C9.30111 62.2978 10.0719 62.5446 10.67 63.0456C10.9263 63.3337 11.121 63.6711 11.2422 64.0371C11.3634 64.403 11.4085 64.7898 11.3748 65.1738C11.4243 65.5618 11.3834 65.9561 11.2551 66.3257C11.1269 66.6953 10.9149 67.0302 10.6356 67.3044C10.3563 67.5787 10.0173 67.7846 9.64517 67.9064C9.27299 68.0281 8.87769 68.0622 8.49012 68.006H0.442573V70.6909H8.99822C10.5283 70.8001 12.0403 70.3065 13.2105 69.3157C13.7253 68.7597 14.1193 68.1031 14.3675 67.3874C14.6158 66.6718 14.7129 65.9125 14.6528 65.1575C14.7116 64.405 14.6138 63.6486 14.3656 62.9357C14.1173 62.2229 13.7241 61.5691 13.2105 61.0155C12.0403 60.0248 10.5283 59.5312 8.99822 59.6404Z" fill="#EB6C34"/>
<path d="M16.3411 54.1887H22.7496V70.6909H25.8801V54.1887H32.2723V51.4875H16.3411V54.1887Z" fill="#EB6C34"/>
<path d="M47.7444 62.4235C48.2536 62.1746 48.7099 61.8299 49.0884 61.4084C49.4932 60.9214 49.8094 60.3673 50.0227 59.7713C50.2701 58.9769 50.3864 58.1474 50.3669 57.3156C50.3838 56.4534 50.2507 55.5948 49.9735 54.7781C49.7252 54.0937 49.3277 53.473 48.8098 52.9609C48.2729 52.4695 47.6353 52.1008 46.9413 51.8804C46.1284 51.6345 45.2829 51.5131 44.4336 51.5202H34.9929V70.6909H38.107V63.111H42.6143L47.5314 70.6909H51.3175L46.1218 62.9473C46.6825 62.8411 47.2276 62.6651 47.7444 62.4235ZM38.107 60.4262V54.2215H43.8436C44.7112 54.1524 45.5727 54.4158 46.2529 54.9582C46.546 55.2687 46.7693 55.6383 46.9078 56.042C47.0463 56.4458 47.0969 56.8744 47.056 57.2993C47.093 57.7263 47.0407 58.1564 46.9024 58.5623C46.7642 58.9681 46.543 59.3408 46.2529 59.6567C45.9211 59.9351 45.5373 60.145 45.1238 60.2742C44.7102 60.4035 44.2751 60.4496 43.8436 60.4098L38.107 60.4262Z" fill="#EB6C34"/>
<path d="M60.6435 67.6295C59.9334 67.4462 59.2764 67.0985 58.7259 66.6145C58.198 66.1365 57.7979 65.5344 57.5621 64.8628C57.2778 64.0447 57.1122 63.1902 57.0704 62.3252H67.8388V59.6567H57.0377C57.1066 58.8191 57.2829 57.9938 57.5621 57.201C57.8124 56.5739 58.2051 56.0134 58.7095 55.5639C59.2578 55.0573 59.9217 54.692 60.6435 54.4998C61.5487 54.2725 62.4803 54.1679 63.4134 54.1887H68.0682V51.4875H62.8234C61.4453 51.4603 60.0721 51.6594 58.7586 52.0769C57.6838 52.4193 56.7099 53.0209 55.9231 53.8286C55.1577 54.6911 54.5974 55.7152 54.2841 56.8245C53.5632 59.622 53.5632 62.5564 54.2841 65.3539C54.5936 66.4647 55.1544 67.4897 55.9231 68.3498C56.7135 69.1568 57.6857 69.7631 58.7586 70.1179C60.075 70.5209 61.4468 70.7143 62.8234 70.6909H68.3469V67.9569H63.4298C62.4902 67.9802 61.552 67.87 60.6435 67.6295Z" fill="#EB6C34"/>
<path d="M77.3777 51.4875L69.953 70.6909H73.231L74.87 66.0579H83.2618L84.9008 70.6909H88.5066L81.0819 51.4875H77.3777ZM75.9026 63.373L79.1807 54.3852L82.4587 63.373H75.9026Z" fill="#EB6C34"/>
<path d="M101.553 67.4003L96.1446 51.4875H90.9817V70.6909H93.9647V54.3361L99.6029 70.6909H103.323L108.962 54.3361V70.6909H112.092V51.4875H106.946L101.553 67.4003Z" fill="#EB6C34"/>
<path d="M120.189 51.4875H117.058V70.6909H120.189V51.4875Z" fill="#EB6C34"/>
<path d="M138.3 66.4671L129.105 51.4875H125.155V70.6909H128.138V55.4821L137.497 70.6909H141.283V51.4875H138.3V66.4671Z" fill="#EB6C34"/>
<path d="M153.657 62.358H158.87V68.006H154.936C153.911 68.0286 152.889 67.8961 151.904 67.6131C151.135 67.4005 150.441 66.9748 149.904 66.3853C149.364 65.7712 148.982 65.0352 148.79 64.2407C148.556 63.2096 148.446 62.1544 148.462 61.0974C148.447 60.035 148.557 58.9745 148.79 57.9377C148.982 57.1432 149.364 56.4072 149.904 55.7931C150.451 55.2194 151.141 54.8013 151.904 54.5816C152.889 54.2987 153.911 54.1662 154.936 54.1887H161.164V51.4875H154.297C152.924 51.46 151.556 51.6592 150.248 52.0768C149.167 52.4156 148.187 53.0175 147.396 53.8286C146.631 54.691 146.071 55.7152 145.757 56.8245C145.014 59.6192 145.014 62.5592 145.757 65.3539C146.067 66.4647 146.628 67.4897 147.396 68.3498C148.19 69.1605 149.169 69.7672 150.248 70.1179C151.559 70.5216 152.925 70.715 154.297 70.6909H162V59.6731H153.657V62.358Z" fill="#EB6C34"/>
</g>
<defs>
<clipPath id="clip0">
<rect width="162" height="70.6909" fill="white"/>
</clipPath>
</defs>
</svg>
